<svg width="60" height="61" viewBox="0 0 60 61" fill="none" xmlns="http://www.w3.org/2000/svg">
<mask id="path-1-inside-1_17_97" fill="white">
<path d="M47.2112 31.5236C48.5449 31.3002 49.8198 32.2009 49.9116 33.5501C50.2298 38.2249 49.2273 42.9133 46.9944 47.07C44.3737 51.9483 40.2065 55.8178 35.1477 58.0703C30.0888 60.3229 24.4249 60.831 19.0459 59.5147C13.6669 58.1984 8.87761 55.1324 5.43055 50.7983C1.98349 46.4642 0.0740023 41.1078 0.00210579 35.5705C-0.0697907 30.0333 1.69998 24.629 5.03334 20.2069C8.36671 15.7848 13.0748 12.5955 18.4178 11.14C22.9704 9.89979 27.7641 9.97829 32.2474 11.3404C33.5412 11.7335 34.1319 13.1785 33.6141 14.4277C33.0962 15.6769 31.666 16.254 30.3631 15.8919C26.8921 14.9274 23.2096 14.9101 19.7049 15.8648C15.4091 17.035 11.6238 19.5993 8.9438 23.1546C6.26377 26.71 4.84088 31.055 4.89869 35.507C4.95649 39.9589 6.49172 44.2655 9.26315 47.7501C12.0346 51.2347 15.8852 53.6998 20.2099 54.7581C24.5346 55.8164 29.0884 55.4079 33.1557 53.5968C37.223 51.7857 40.5734 48.6747 42.6804 44.7525C44.3995 41.5525 45.2114 37.9606 45.0528 34.3616C44.9932 33.0107 45.8775 31.747 47.2112 31.5236Z"/>
</mask>
<path d="M47.2112 31.5236C48.5449 31.3002 49.8198 32.2009 49.9116 33.5501C50.2298 38.2249 49.2273 42.9133 46.9944 47.07C44.3737 51.9483 40.2065 55.8178 35.1477 58.0703C30.0888 60.3229 24.4249 60.831 19.0459 59.5147C13.6669 58.1984 8.87761 55.1324 5.43055 50.7983C1.98349 46.4642 0.0740023 41.1078 0.00210579 35.5705C-0.0697907 30.0333 1.69998 24.629 5.03334 20.2069C8.36671 15.7848 13.0748 12.5955 18.4178 11.14C22.9704 9.89979 27.7641 9.97829 32.2474 11.3404C33.5412 11.7335 34.1319 13.1785 33.6141 14.4277C33.0962 15.6769 31.666 16.254 30.3631 15.8919C26.8921 14.9274 23.2096 14.9101 19.7049 15.8648C15.4091 17.035 11.6238 19.5993 8.9438 23.1546C6.26377 26.71 4.84088 31.055 4.89869 35.507C4.95649 39.9589 6.49172 44.2655 9.26315 47.7501C12.0346 51.2347 15.8852 53.6998 20.2099 54.7581C24.5346 55.8164 29.0884 55.4079 33.1557 53.5968C37.223 51.7857 40.5734 48.6747 42.6804 44.7525C44.3995 41.5525 45.2114 37.9606 45.0528 34.3616C44.9932 33.0107 45.8775 31.747 47.2112 31.5236Z" stroke="white" stroke-width="7.13846" mask="url(#path-1-inside-1_17_97)"/>
<path d="M15 32.2308L25.8769 41.0462L57 2.23077H33.0154" stroke="white" stroke-width="4.46154" stroke-linecap="round" stroke-linejoin="round"/>
</svg>
